<svg viewBox="0 0 330 200" xmlns="http://www.w3.org/2000/svg"><g><g><g><g><g><line x1="40" y1="178" x2="35" y2="178" style="visibility: inherit;" fill="rgb(0, 0, 0)" stroke="rgb(204, 204, 204)" stroke-width="1px"></line><line x1="40" y1="164.30769230769232" x2="35" y2="164.30769230769232" style="visibility: inherit;" fill="rgb(0, 0, 0)" stroke="rgb(204, 204, 204)" stroke-width="1px"></line><line x1="40" y1="150.6153846153846" x2="35" y2="150.6153846153846" style="visibility: inherit;" fill="rgb(0, 0, 0)" stroke="rgb(204, 204, 204)" stroke-width="1px"></line><line x1="40" y1="136.9230769230769" x2="35" y2="136.9230769230769" style="visibility: inherit;" fill="rgb(0, 0, 0)" stroke="rgb(204, 204, 204)" stroke-width="1px"></line><line x1="40" y1="123.23076923076923" x2="35" y2="123.23076923076923" style="visibility: inherit;" fill="rgb(0, 0, 0)" stroke="rgb(204, 204, 204)" stroke-width="1px"></line><line x1="40" y1="109.53846153846153" x2="35" y2="109.53846153846153" style="visibility: inherit;" fill="rgb(0, 0, 0)" stroke="rgb(204, 204, 204)" stroke-width="1px"></line><line x1="40" y1="95.84615384615384" x2="35" y2="95.84615384615384" style="visibility: inherit;" fill="rgb(0, 0, 0)" stroke="rgb(204, 204, 204)" stroke-width="1px"></line><line x1="40" y1="82.15384615384616" x2="35" y2="82.15384615384616" style="visibility: inherit;" fill="rgb(0, 0, 0)" stroke="rgb(204, 204, 204)" stroke-width="1px"></line><line x1="40" y1="68.46153846153845" x2="35" y2="68.46153846153845" style="visibility: inherit;" fill="rgb(0, 0, 0)" stroke="rgb(204, 204, 204)" stroke-width="1px"></line><line x1="40" y1="54.769230769230774" x2="35" y2="54.769230769230774" style="visibility: inherit;" fill="rgb(0, 0, 0)" stroke="rgb(204, 204, 204)" stroke-width="1px"></line><line x1="40" y1="41.076923076923066" x2="35" y2="41.076923076923066" style="visibility: inherit;" fill="rgb(0, 0, 0)" stroke="rgb(204, 204, 204)" stroke-width="1px"></line><line x1="40" y1="27.384615384615387" x2="35" y2="27.384615384615387" style="visibility: inherit;" fill="rgb(0, 0, 0)" stroke="rgb(204, 204, 204)" stroke-width="1px"></line><line x1="40" y1="13.69230769230768" x2="35" y2="13.69230769230768" style="visibility: inherit;" fill="rgb(0, 0, 0)" stroke="rgb(204, 204, 204)" stroke-width="1px"></line><line x1="40" y1="0" x2="35" y2="0" style="visibility: inherit;" fill="rgb(0, 0, 0)" stroke="rgb(204, 204, 204)" stroke-width="1px"></line></g><g transform="translate(30, 0)"><text x="0" y="178" dx="0em" dy="0.3em" style="text-anchor: end; visibility: hidden; font-family: &quot;Helvetica Neue&quot;, sans-serif; font-size: 12px; font-weight: 200;" fill="rgb(50, 49, 63)" stroke="none" stroke-width="1px">-20</text><text x="0" y="164.30769230769232" dx="0em" dy="0.3em" style="text-anchor: end; visibility: inherit; font-family: &quot;Helvetica Neue&quot;, sans-serif; font-size: 12px; font-weight: 200;" fill="rgb(50, 49, 63)" stroke="none" stroke-width="1px">0</text><text x="0" y="150.6153846153846" dx="0em" dy="0.3em" style="text-anchor: end; visibility: hidden; font-family: &quot;Helvetica Neue&quot;, sans-serif; font-size: 12px; font-weight: 200;" fill="rgb(50, 49, 63)" stroke="none" stroke-width="1px">20</text><text x="0" y="136.9230769230769" dx="0em" dy="0.3em" style="text-anchor: end; visibility: inherit; font-family: &quot;Helvetica Neue&quot;, sans-serif; font-size: 12px; font-weight: 200;" fill="rgb(50, 49, 63)" stroke="none" stroke-width="1px">40</text><text x="0" y="123.23076923076923" dx="0em" dy="0.3em" style="text-anchor: end; visibility: hidden; font-family: &quot;Helvetica Neue&quot;, sans-serif; font-size: 12px; font-weight: 200;" fill="rgb(50, 49, 63)" stroke="none" stroke-width="1px">60</text><text x="0" y="109.53846153846153" dx="0em" dy="0.3em" style="text-anchor: end; visibility: inherit; font-family: &quot;Helvetica Neue&quot;, sans-serif; font-size: 12px; font-weight: 200;" fill="rgb(50, 49, 63)" stroke="none" stroke-width="1px">80</text><text x="0" y="95.84615384615384" dx="0em" dy="0.3em" style="text-anchor: end; visibility: hidden; font-family: &quot;Helvetica Neue&quot;, sans-serif; font-size: 12px; font-weight: 200;" fill="rgb(50, 49, 63)" stroke="none" stroke-width="1px">100</text><text x="0" y="82.15384615384616" dx="0em" dy="0.3em" style="text-anchor: end; visibility: inherit; font-family: &quot;Helvetica Neue&quot;, sans-serif; font-size: 12px; font-weight: 200;" fill="rgb(50, 49, 63)" stroke="none" stroke-width="1px">120</text><text x="0" y="68.46153846153845" dx="0em" dy="0.3em" style="text-anchor: end; visibility: hidden; font-family: &quot;Helvetica Neue&quot;, sans-serif; font-size: 12px; font-weight: 200;" fill="rgb(50, 49, 63)" stroke="none" stroke-width="1px">140</text><text x="0" y="54.769230769230774" dx="0em" dy="0.3em" style="text-anchor: end; visibility: inherit; font-family: &quot;Helvetica Neue&quot;, sans-serif; font-size: 12px; font-weight: 200;" fill="rgb(50, 49, 63)" stroke="none" stroke-width="1px">160</text><text x="0" y="41.076923076923066" dx="0em" dy="0.3em" style="text-anchor: end; visibility: hidden; font-family: &quot;Helvetica Neue&quot;, sans-serif; font-size: 12px; font-weight: 200;" fill="rgb(50, 49, 63)" stroke="none" stroke-width="1px">180</text><text x="0" y="27.384615384615387" dx="0em" dy="0.3em" style="text-anchor: end; visibility: inherit; font-family: &quot;Helvetica Neue&quot;, sans-serif; font-size: 12px; font-weight: 200;" fill="rgb(50, 49, 63)" stroke="none" stroke-width="1px">200</text><text x="0" y="13.69230769230768" dx="0em" dy="0.3em" style="text-anchor: end; visibility: hidden; font-family: &quot;Helvetica Neue&quot;, sans-serif; font-size: 12px; font-weight: 200;" fill="rgb(50, 49, 63)" stroke="none" stroke-width="1px">220</text><text x="0" y="0" dx="0em" dy="0.3em" style="text-anchor: end; visibility: hidden; font-family: &quot;Helvetica Neue&quot;, sans-serif; font-size: 12px; font-weight: 200;" fill="rgb(50, 49, 63)" stroke="none" stroke-width="1px">240</text></g><line x1="40" y1="0" x2="40" y2="178" fill="rgb(0, 0, 0)" stroke="rgb(204, 204, 204)" stroke-width="1px"></line></g></g><g transform="translate(40, 0)" clip-path="url(#clip_0)"><clipPath id="clip_0"><rect width="290" height="178"></rect></clipPath><g><g><g><line x1="0" y1="0" x2="0" y2="178" fill="rgb(0, 0, 0)" stroke="rgb(60, 60, 60)" stroke-width="1px" opacity="0.25"></line><line x1="29" y1="0" x2="29" y2="178" fill="rgb(0, 0, 0)" stroke="rgb(60, 60, 60)" stroke-width="1px" opacity="0.25"></line><line x1="58" y1="0" x2="58" y2="178" fill="rgb(0, 0, 0)" stroke="rgb(60, 60, 60)" stroke-width="1px" opacity="0.25"></line><line x1="87" y1="0" x2="87" y2="178" fill="rgb(0, 0, 0)" stroke="rgb(60, 60, 60)" stroke-width="1px" opacity="0.25"></line><line x1="116" y1="0" x2="116" y2="178" fill="rgb(0, 0, 0)" stroke="rgb(60, 60, 60)" stroke-width="1px" opacity="0.25"></line><line x1="145" y1="0" x2="145" y2="178" fill="rgb(0, 0, 0)" stroke="rgb(60, 60, 60)" stroke-width="1px" opacity="0.25"></line><line x1="174" y1="0" x2="174" y2="178" fill="rgb(0, 0, 0)" stroke="rgb(60, 60, 60)" stroke-width="1px" opacity="0.25"></line><line x1="203" y1="0" x2="203" y2="178" fill="rgb(0, 0, 0)" stroke="rgb(60, 60, 60)" stroke-width="1px" opacity="0.25"></line><line x1="232" y1="0" x2="232" y2="178" fill="rgb(0, 0, 0)" stroke="rgb(60, 60, 60)" stroke-width="1px" opacity="0.25"></line><line x1="261" y1="0" x2="261" y2="178" fill="rgb(0, 0, 0)" stroke="rgb(60, 60, 60)" stroke-width="1px" opacity="0.25"></line><line x1="290" y1="0" x2="290" y2="178" fill="rgb(0, 0, 0)" stroke="rgb(60, 60, 60)" stroke-width="1px" opacity="0.25"></line></g><g><line x1="0" y1="178" x2="290" y2="178" fill="rgb(0, 0, 0)" stroke="rgb(60, 60, 60)" stroke-width="1px" opacity="0.25"></line><line x1="0" y1="164.30769230769232" x2="290" y2="164.30769230769232" fill="rgb(0, 0, 0)" stroke="rgb(60, 60, 60)" stroke-width="1px" opacity="0.25"></line><line x1="0" y1="150.6153846153846" x2="290" y2="150.6153846153846" fill="rgb(0, 0, 0)" stroke="rgb(60, 60, 60)" stroke-width="1px" opacity="0.25"></line><line x1="0" y1="136.9230769230769" x2="290" y2="136.9230769230769" fill="rgb(0, 0, 0)" stroke="rgb(60, 60, 60)" stroke-width="1px" opacity="0.25"></line><line x1="0" y1="123.23076923076923" x2="290" y2="123.23076923076923" fill="rgb(0, 0, 0)" stroke="rgb(60, 60, 60)" stroke-width="1px" opacity="0.25"></line><line x1="0" y1="109.53846153846153" x2="290" y2="109.53846153846153" fill="rgb(0, 0, 0)" stroke="rgb(60, 60, 60)" stroke-width="1px" opacity="0.25"></line><line x1="0" y1="95.84615384615384" x2="290" y2="95.84615384615384" fill="rgb(0, 0, 0)" stroke="rgb(60, 60, 60)" stroke-width="1px" opacity="0.25"></line><line x1="0" y1="82.15384615384616" x2="290" y2="82.15384615384616" fill="rgb(0, 0, 0)" stroke="rgb(60, 60, 60)" stroke-width="1px" opacity="0.25"></line><line x1="0" y1="68.46153846153845" x2="290" y2="68.46153846153845" fill="rgb(0, 0, 0)" stroke="rgb(60, 60, 60)" stroke-width="1px" opacity="0.25"></line><line x1="0" y1="54.769230769230774" x2="290" y2="54.769230769230774" fill="rgb(0, 0, 0)" stroke="rgb(60, 60, 60)" stroke-width="1px" opacity="0.25"></line><line x1="0" y1="41.076923076923066" x2="290" y2="41.076923076923066" fill="rgb(0, 0, 0)" stroke="rgb(60, 60, 60)" stroke-width="1px" opacity="0.25"></line><line x1="0" y1="27.384615384615387" x2="290" y2="27.384615384615387" fill="rgb(0, 0, 0)" stroke="rgb(60, 60, 60)" stroke-width="1px" opacity="0.25"></line><line x1="0" y1="13.69230769230768" x2="290" y2="13.69230769230768" fill="rgb(0, 0, 0)" stroke="rgb(60, 60, 60)" stroke-width="1px" opacity="0.25"></line><line x1="0" y1="0" x2="290" y2="0" fill="rgb(0, 0, 0)" stroke="rgb(60, 60, 60)" stroke-width="1px" opacity="0.25"></line></g></g></g><g><g><line x1="0" y1="164.30769230769232" x2="290" y2="164.30769230769232" fill="rgb(0, 0, 0)" stroke="rgb(153, 153, 153)" stroke-width="1.5px"></line></g></g><g><g><line x1="29" y1="0" x2="29" y2="178" fill="rgb(0, 0, 0)" stroke="rgb(153, 153, 153)" stroke-width="1.5px"></line></g></g><g><g><g><g><g><path stroke="rgb(255, 112, 67)" stroke-width="2px" d="M29.435000000000002,146.33653846153845L29.724999999999998,147.65936842586663L29.869999999999997,146.8041353313692L30.16,146.96165117191927L30.45,147.5120385689308L30.595,147.98398008906045L30.884999999999998,148.0309094111115L31.03,147.9643106874713L31.175,147.99182665291065L31.32,148.15084400465884L31.465,148.28341304652938L31.61,148.41906346778944L31.755,148.56333541737948L31.9,148.79191518353127L32.480000000000004,149.09408300810958L32.625,149.30199123914406L33.35,149.72027522571364L33.495000000000005,150.02564123602752L33.785000000000004,150.0018584821663L33.93,149.99168758928224L34.22,150.08414128556387L34.655,150.2640015282379L34.8,150.4076225721567L35.089999999999996,150.5850942734274L35.235,150.65410640375904L35.38,150.72404119055074L35.525,150.7888788567794L35.815,150.8788480066596L36.105,150.9692340032328L36.25,151.03173027301534L36.685,151.13316719409863L36.83,151.213928846851L36.975,151.30350214244828L37.12,151.3253050215813L37.265,151.37356192625L37.7,151.45366983131814L37.845,151.50663367890138L38.135000000000005,151.5361712986574L38.425000000000004,151.54023518509L38.57,151.53207710279085L38.715,151.49029234152903L38.86,151.4108483732699L39.005,151.2605243715573L39.295,151.12491548146446L39.440000000000005,151.02253079346974L39.585,150.9666080689509L39.730000000000004,150.95071051135565L40.02,150.97130861252842L40.31,151.0179606828848L40.455000000000005,151.074993115209L41.18,151.17728045479598L41.324999999999996,151.26946652831506L41.47,151.32672166413175L41.614999999999995,151.38749484212224L41.76,151.4477332074591L41.904999999999994,151.51444590698532L42.629999999999995,151.5975015845698L43.355,151.68794770220774L43.79,151.80384336563156L44.08,151.94970534807993L44.225,152.05349428818172L44.37,152.1178117432068L45.385,151.9633683615779L45.82,151.83863816894922L46.11,151.71477256485718L46.255,151.6022746955915L46.4,151.4889070700725L46.980000000000004,151.23483780392058L47.125,151.0378516899655L47.27,150.81513067985227L47.705000000000005,150.5856361407593L47.85,150.41187700802243L48.285000000000004,150.3063060684916L48.865,150.24077328985166L49.155,150.17236947562358L49.445,150.0481192641241L49.59,149.89009287776557L49.73500000000001,149.74567480358886L49.879999999999995,149.66658148336046L50.025,149.60617323684465L50.169999999999995,149.57359694888092L50.459999999999994,149.55784652260968L50.75,149.55357133401273L51.184999999999995,149.56358885962968L51.33,149.59413127129608L51.474999999999994,149.6171167300926L51.765,149.671592425712L51.91,149.7022782480044L52.055,149.7232059788078L52.345,149.75472254829137L52.489999999999995,149.79561665503925L52.78,149.86661711664152L52.925,149.91072836337426L53.214999999999996,149.9947001694018L53.36,150.08645707050826L53.505,150.17705721958302L53.795,150.234535453172L54.375,150.30391308503982L54.52,150.3576952320937L54.665,150.40730744538004L54.81,150.44545404292137L55.1,150.47793662456456L55.245,150.49793421120523L55.535000000000004,150.54606110993433L55.825,150.57026151870753L55.97,150.55874425497072L56.115,150.56166715130226L56.260000000000005,150.54426076024026L56.550000000000004,150.46556846154013L56.695,150.41405584786665L57.71,149.79693337649414L58.290000000000006,149.02039481063863L58.870000000000005,148.1998000743016L59.01499999999999,147.62937679391968L59.16,147.21017105538354L59.739999999999995,147.02342647705345L59.885,146.91977754907242L60.029999999999994,146.89866584786517L60.175,146.8993564059219L60.61,146.60883193209298L60.754999999999995,146.36973950942593L61.044999999999995,146.18943420484692L61.19,145.88971344157653L61.335,145.67237067678607L61.625,145.46378837332315L61.769999999999996,145.30644650408135L61.915,145.27027155733435L62.205,145.27793283900857L62.35,145.2529807717947L62.495,145.19069724711463L62.64,145.18055289388298L62.785,145.18010104709901L62.93,145.17117075143233L63.365,145.12843621110744L63.51,145.0885139996503L63.8,145.0203319046763L64.38,144.99107598822414L64.525,144.9366349085636L64.815,144.76370827820335L65.105,144.5035079001459L65.25,144.26569670443484L65.97500000000001,143.7500039626205L66.41,142.9607305940477L66.555,142.37286928900528L66.7,141.85123880321467L66.845,141.46530933534535L67.135,140.94990920131056L67.715,140.3246547325509L68.005,139.72147905455378L68.295,139.19371523448808L68.44,138.76264727063847L68.585,138.33717258858576L68.72999999999999,137.97802176614547L69.16499999999999,137.54123962141364L69.31,137.17653305871065L69.6,136.8372715837557L69.89,136.57140671319624L70.17999999999999,136.36206534419904L70.905,136.15893957742261L71.195,135.99669734528544L71.34,135.8580257852033L71.775,135.30432593741622L71.92,134.7499496804335L72.065,134.3503105632601L72.21,134.09284500838345L72.355,134.19100507730556L72.5,134.34632589421747L72.645,134.55572032527192L72.79,134.7071494634111L72.935,134.84706779905773L73.515,134.88213715084842L73.66,134.90174338068965L73.95,134.8482936894455L74.385,134.60060032507383L74.965,134.72266846975145L75.11,134.83825237026622L75.255,134.9300129641684L75.4,135.04863757425L75.69,135.20929390256157L75.98,135.57321287421348L76.125,135.9076269744805L76.27000000000001,136.19820746277847L76.415,136.41362762811778L76.85000000000001,136.57347738511925L76.995,136.70189431050989L77.28500000000001,136.7980967897863L77.86500000000001,136.78395253641693L78.155,136.62988579018275L78.44500000000001,136.48385753773528L78.59,136.37348901461053L78.735,136.25079593295922L78.88000000000001,136.14987497895294L79.025,135.94740460832892L79.31500000000001,135.837341342839L79.46000000000001,135.69545705577903L79.89500000000001,135.55773724048836L80.185,135.4918338537358L80.33000000000001,135.4576658294151L80.62,135.52489483601988L80.91000000000001,135.6936100435605L81.055,135.52414498279967L81.2,135.05506388977685L81.49000000000001,134.59073104938795L81.63499999999999,134.23741238880703L81.77999999999999,134.14086859723815L81.925,133.9500055875565L82.21499999999999,133.92114669958963L82.36,133.85188807032046L82.64999999999999,133.74429873203857L82.79499999999999,133.6084127314145L83.085,133.39502940323717L83.375,133.290456704936L83.52,133.1803385119744L83.66499999999999,133.09014958133898L83.80999999999999,133.00061920336995L83.955,132.9524918593462L84.24499999999999,132.8657810749662L84.39,132.72042378890754L84.82499999999999,132.0155887917727L84.97,131.44651484333076L85.115,130.892430704657L85.25999999999999,130.3227040382539L85.55,129.56771215643198L85.695,129.00538594414917L85.83999999999999,128.59601305889217L85.985,128.23922235619546L86.71,128.217909857344L87.28999999999999,127.4640302946038L87.435,126.87659710594355L87.725,126.34879157816108L88.16,125.96942881709782L89.175,125.02093667369388L89.32,124.35250969149229L89.755,123.2607636850278L89.9,122.42134941085854L90.045,121.78204773587925L90.19,121.27060071738744L90.48,120.80970608069548L90.77,120.32077892696407L91.06,119.67478107902897L91.35,118.74706234516157L92.075,116.99348711176987L92.655,115.55181875252441L92.8,114.31209445698008L92.94500000000001,113.40840348358299L93.09,112.46660267590688L93.38,111.3285241873361L93.525,110.52864419893517L93.96000000000001,110.02623506666806L94.39500000000001,109.55857189463022L94.83,109.10382904300207L95.265,108.2806798081359L95.41000000000001,107.58349380068094L95.555,107.1662119474325L95.7,107.13166601118044L95.845,107.23743772505718L96.135,107.34837281615239L96.28,107.08776889901549L96.42500000000001,106.57593132754879L96.57000000000001,106.32816778844455L96.715,105.7970649970315L96.86,105.39389816177206L97.00500000000001,105.11678243084063L97.295,104.78337079788702L97.58500000000001,104.55813835251926L97.73,104.56403851325032L98.165,103.92140719379925L98.31,103.14255908610085L98.89,102.08112745525257L99.325,100.90025952750959L99.47000000000001,100.09490760078889L99.75999999999999,99.2417301938351L99.90499999999999,98.59735229988785L100.195,98.30446122995869L100.485,97.8244925865324L100.91999999999999,97.54673083939146L101.065,97.2538316939208L101.93499999999999,97.26100574455086L102.36999999999999,96.79383856854051L102.515,96.35883254682982L102.66,95.8315183739643L102.94999999999999,94.94378717497864L103.095,94.23704481263437L103.24,93.49207219912319L103.53,93.27284160758109L103.675,93.03279308397997L103.82,92.8108809870482L103.96499999999999,92.50002824846884L104.255,91.94314455631175L104.97999999999999,90.42954478663745L105.125,89.25716127685229L105.995,87.75705006688655L106.285,86.95599381256655L106.42999999999999,86.27171926855961L106.575,85.51189306108328L106.72,84.7048525176898L106.865,83.8699220347919L107.01,83.22505616929958L107.155,82.48348454441016L107.3,81.63716080938069L107.445,81.24965335663369L107.59,80.79137604074816L107.735,80.63402936219504L107.88,80.35427620422092L108.17,79.90697807594363L108.315,79.2656591031947L108.46,78.56099500379646L108.605,77.78726145856535L108.895,76.81553932092021L109.04,76.02349444162346L109.185,75.22681169842622L109.475,74.10148402920747L109.765,72.99343701096748L110.055,71.80233355991246L110.2,70.69038385095374L110.635,69.23580205269849L110.78,67.97864533363365L110.925,67.12126445123143L111.215,66.21320473587616L111.36,65.5939080100039L111.505,64.8977952351221L111.795,63.834588436440995L112.08500000000001,62.67191006584065L112.23,61.628923129427804L112.52000000000001,60.38519286811179L112.665,59.53696882989428L112.81,58.95848003582992L112.955,58.56395067827803L113.10000000000001,58.29488165642765L113.245,57.8591803465778L113.39,57.25163847345439L113.53500000000001,56.58078678046742L113.68,55.849513518013396L113.97,55.20636644856134L114.11500000000001,54.767740147195056L114.26,54.46859700966323L114.69500000000001,53.650258756152596L114.84,52.82917608388807L114.985,52.0493340598115L115.275,51.03248954710011L115.42,50.035075857478574L115.56500000000001,49.05091066724856L115.71000000000001,48.14906661949712L116,47.09212906841756L116.29,46.071680503242135L116.435,45.136470718595746L116.58000000000001,44.24430545923457L116.87,43.2629426091618L117.16000000000001,42.38025735167338L117.45,41.7782660060663L117.59500000000001,41.36770790836226L117.74000000000001,40.878623390558374L118.175,40.10318451694724L118.755,38.95570067286158L118.89999999999999,38.03731846191897L119.19,37.30320758352235L119.335,36.80254396445585L119.625,36.39211428697217L120.205,35.821204566771286L120.35,35.18827169778433L120.64,34.53027999168961L120.92999999999999,33.85951005725639L121.50999999999999,33.37618021447062L121.945,32.85686226616983L122.08999999999999,32.30222400544105L122.38,31.652364253071596L122.52499999999999,31.18329515445339L122.67,30.78794509206196L122.815,30.518316349510997L122.96,30.334429547091275L123.10499999999999,30.209018747841014L123.25,30.123488582752316L123.395,29.99833587016596L123.53999999999999,29.93022599250216L124.12,29.633734768272063L124.265,29.431527753347126L124.55499999999999,29.287158043270665L124.845,29.188697900998505L124.99,29.12154808396889L125.135,29.075751908754683L125.28,29.044518917258586L125.57,29.02321801705827L125.715,29.008690803121652L125.86,28.998783243216877L126.005,28.992026287361796L126.295,28.93568522650841L126.44,28.860616129081734L126.585,28.809419004636737L126.73,28.77019066719629L126.875,28.734816465879703L127.165,28.68697914040831L127.31,28.654354084436818L127.455,28.632103796264232L127.745,28.632017422766154L127.89,28.670758959249582L128.035,28.697180687131294L128.18,28.71520030554663L128.325,28.72748968530584L128.47,28.735871042301653L128.615,28.823496590804268L128.76,28.883257214883088L128.905,28.924013960504823L129.34,28.951810061018847L129.63,29.031123615667582L129.92000000000002,29.126168530475866L130.355,29.283678371829012L130.5,29.31134324792913L130.645,29.317278319678252L130.79,29.321326038611147L130.935,29.324086582923428L131.08,29.32596927414437L131.225,29.327253269557048L131.37,29.24406354211257L131.66,29.189484097279887L131.805,29.15226091590401L131.95000000000002,29.126874706205626L132.53,29.03411637405759L133.11,28.932058070279226L133.255,28.86245430710241L133.54500000000002,28.814984540615768L133.69,28.782610159871922L133.835,28.76053083220461L133.98000000000002,28.745472730735486L134.125,28.735203105533543L134.27,28.728199221145843L134.705,28.6501335841441L134.85,28.596892819708927L134.995,28.560582618364094L135.57500000000002,28.535819061046965L135.72,28.518930314956663L136.01,28.50741219012309L136.155,28.499556828986584L136.29999999999998,28.49419947269149L136.445,28.490545755698236L136.73499999999999,28.488053920708836L137.17,28.486354489246082L137.315,28.48519547698848L137.605,28.48440503062878L137.75,28.483865946211466L137.89499999999998,28.483498290638863L138.04,28.483247549538333L138.185,28.46583227178769L138.32999999999998,28.453955052361778L138.62,28.445854788713262L139.055,28.440330408904998L139.2,28.43656278187578L139.49,28.433993260241806L139.78,28.432240846487474L139.92499999999998,28.43104570030701L140.07,28.430230610611943L140.215,28.43614256729333L140.505,28.459574743354608L140.65,28.514352608681776L140.795,28.55171111283491L140.94,28.70005546819243L141.085,28.9434890737202L141.23,29.18711167910837L141.375,29.473972202223706L141.52,29.788165035944502L141.95499999999998,30.002444548542115L142.1,30.148583176133656L142.68,30.19436095390637L142.825,30.225581398347344L143.115,30.246873741456113L143.405,30.295883664096436L143.55,30.329308431337154L143.695,30.51376709937381L143.84,30.63956791097479L143.98499999999999,30.725364064486655L144.13,30.783877041181768L144.275,30.763429599145383L144.42,30.708528051182952L144.71,30.671085195472614L145,30.552863280379995L145.29,30.491632833935654L145.725,30.579207372839164L145.87,30.774731437647546L146.015,31.00076473734501L146.16,31.290717677014868L146.30499999999998,31.64150808346602L146.595,32.06827818690218L146.74,32.363643974058874L146.885,32.56508344089971L147.17499999999998,32.786530569601126L147.32,33.04749099314947L147.61,33.27073097111625L148.045,33.64500022696623L148.33499999999998,34.074847209985535L148.48,34.533981049707904L148.625,35.023861628212615L149.06,35.9658182905691L149.49499999999998,36.99622720052028L149.64000000000001,37.739919147644855L149.93,38.24711705558383L150.075,38.593026028798164L150.22,38.82893594853036L150.51,38.98982651378773L150.655,39.09955387929327L151.23499999999999,39.174387942568046L151.52499999999998,39.225424773721414L151.67000000000002,39.318432557381726L151.815,39.38832839173574L151.96,39.435997350765206L152.25,39.55688489170822L152.39499999999998,39.68028326516918L152.54000000000002,39.76444095586959L152.685,39.82183650092725L152.975,39.86098026265657L153.265,39.88767630815596L153.55499999999998,39.905883011186546L153.70000000000002,39.918299982653394L153.845,39.926768357193794L153.99,39.93254378863034L154.135,39.93648263287008L154.715,40.165500414087205L154.86,40.31522269302383L155.005,40.41733328725863L155.15,40.467575812877925L155.58499999999998,40.581594729097276L155.73000000000002,40.67228800371001L155.875,40.65654325253337L156.02,40.52940732455926L156.165,40.324146664724765L156.45499999999998,40.33504544702953L156.60000000000002,40.452408576379554L156.745,40.68333678290807L156.89000000000001,40.84082981976053L157.18,41.204748206410756L157.47,41.64478016895586L157.615,42.00092668294087L157.76000000000002,42.33650449297676L157.905,42.52872738745236L158.05,42.83657470129876L158.34,43.175856950764825L158.48499999999999,43.52580140185677L158.63000000000002,43.76446351750147L158.92000000000002,43.9272310803712L159.065,44.03823855824831L159.355,44.1139456581605L159.5,44.16557790030063L160.08,44.33658931871642L160.225,44.57824091088557L160.515,45.07068514887081L160.66000000000003,45.60483958987987L160.805,46.08768687560419L160.95000000000002,46.54416647856223L161.095,46.9826599999179L161.24,47.482176001470094L161.385,48.05995382844094L161.675,48.66308220160482L161.82000000000002,49.04855100460034L161.965,49.2618638605675L162.4,49.381475158879084L162.545,49.361740379691554L162.69000000000003,49.23835110046744L162.835,49.11109059221425L163.125,48.79365553757103L163.995,48.781940148860855L164.14,48.72868528465375L164.285,48.80013967779823L164.575,48.848871573922764L165.155,48.88210672707967L165.58999999999997,48.9047731015327L166.025,48.92023156890966L166.45999999999998,48.86610905294938L166.605,48.82919749706443L166.895,48.715649827021764L167.04,48.59725392355904L167.185,48.529440291148575L167.32999999999998,48.48319139384466L167.61999999999998,48.46242939230578L167.76500000000001,48.46551397957637L167.91,48.547371181841896L168.055,48.60319779378699L168.2,48.65204796760017L168.345,48.698296159891896L168.48999999999998,48.72983742703485L168.635,48.75134857122637L168.78,48.76601917156495L169.07,48.77602452099589L169.215,48.681538484671734L169.505,48.492080525044855L169.79500000000002,48.47280035639753L169.94,48.418698210842194L170.23,48.56933159380995L170.51999999999998,48.786305619381096L170.66500000000002,49.04852396320777L170.81,49.43859671815184L170.955,49.79731554647756L171.39,49.99669681828891L171.535,50.13267484566421L171.67999999999998,50.10685790337807L171.82500000000002,49.9836291655339L172.115,49.70774422151874L172.26,49.46354929612693L173.42,49.46729513092612L173.565,49.61858039328652L173.85500000000002,49.74977763900304L174,49.8392541605817L174.29,50.17402955613527L174.435,50.402346375902795L174.57999999999998,50.55805844698426L174.72500000000002,50.509055628581024L175.01500000000001,50.02082010021006L175.16,49.442115080766655L175.305,48.75644157734922L175.595,47.87495303429222L175.74,47.01511376312601L175.88500000000002,46.17219856662959L176.03,45.37962271031137L176.465,44.66448730381694L176.75500000000002,44.11641166444534L177.48,44.044397183017566L177.625,43.95648286347469L177.77,43.86850460075968L177.91500000000002,43.77185893166342L178.205,43.30501974536455L178.495,42.764615829432074L178.64,42.29690662341457L178.78500000000003,42.04906198347547L179.07500000000002,41.76578655869406L179.22,41.57259271899315L179.365,41.44083452031708L179.51,41.35097542882005L179.655,41.408245485375204L180.09,41.6908794257115L180.235,41.98063355908795L180.38,42.17824587805069L181.10500000000002,43.045894070253325L181.25,43.90707064660353L181.39499999999998,44.791854277729016L181.54,45.666873172709046L181.83,46.841317520830444L181.975,47.93759382301948L182.12,48.9568507196648L182.265,49.94297728137818L182.41,50.88064752912145L183.135,52.30905994428166L183.28,53.34574645284782L183.42499999999998,54.05276665168995L183.57,54.53495442730028L183.71499999999997,54.8638064902665L183.86,55.144124990782956L184.44,55.23830442206808L184.58499999999998,55.22278128045755L184.73,55.16908547805683L184.875,55.000975288156525L185.02,54.73328495900397L185.165,54.47311926810366L185.31,54.256889145656274L185.6,54.24521510946761L185.74499999999998,54.41400803855677L185.89000000000001,54.74898845778776L186.035,55.30077105726022L186.18,56.03059271168435L186.325,56.827948235340784L186.47,57.667053281200424L187.05,58.76742419459022L187.34,59.41441152360153L187.48499999999999,59.665973208422045L187.92000000000002,59.341766278756054L188.21,59.11634857611065L188.355,58.962613702906495L188.64499999999998,58.834054399207716L188.935,58.472624546248255L189.08,58.22612938652988L189.225,58.05801968760197L189.515,57.94336887293311L189.95000000000002,57.847932745008876L190.095,57.78284530576454L190.53,57.61559313863056L190.82000000000002,57.46057076815157L191.255,57.45831114540546L191.69,57.243374288953845L191.83499999999998,56.98900982036439L191.98000000000002,56.815533252786366L192.125,56.69722223369814L192.27,56.64671076475122L192.415,56.69632735524536L192.56,56.568502893183876L192.70499999999998,56.382172874706384L192.85000000000002,56.255095802104734L192.995,56.00676626181196L193.285,55.81584934444322L193.43,55.51535723288137L193.575,55.27593306815599L194.01000000000002,55.11264578781328L194.155,55.00128386261956L194.445,54.75073967910785L194.59,54.392337499716376L194.88000000000002,54.05090942730432L195.605,53.35892797713039L195.75,52.66282108795063L195.895,51.918635680262085L196.04000000000002,51.11364002616381L196.185,50.29303653151635L196.475,49.14277443462635L196.62,48.062987105821435L196.765,47.04419926455739L196.91000000000003,46.05839259861406L197.20000000000002,44.82563526301578L197.345,43.76934301711452L197.49,42.90022110238252L197.78,42.171681727259084L197.925,41.68990619646047L198.215,41.5984431983681L199.665,41.93052442579088L200.1,41.85307476898507L200.245,41.474772200202096L200.39,40.93224101598855L200.535,40.23459357427325L200.825,39.22422889905647L200.97,38.3066760737843L201.115,37.4610414053565L201.405,36.49632409526467L201.83999999999997,35.66163558996794L201.985,35.09237802935559L202.13,34.70414437301798L202.275,34.43936901939571L202.42,34.25448032965636L202.565,34.12838624325414L202.70999999999998,33.964792511865284L202.855,33.78640044706222L203.145,33.660425160297564L203.435,33.57451001472407L203.57999999999998,33.54609253151418L203.86999999999998,33.56982414974311L204.16,33.65283025337112L204.45,33.709440416045425L204.595,33.74804854698928L204.73999999999998,33.77437929229299L204.885,33.792336860590126L205.03,33.804583922168774L205.175,33.812936418165435L205.755,33.805697124728255L206.48,34.47759512370072L206.625,35.067315889707174L206.91500000000002,35.784210930498375L207.06,36.25588907599786L207.205,36.66810683139792L207.64,37.0376166514657L207.785,37.276686653045005L207.92999999999998,37.4397323941221L208.07500000000002,37.55092958953671L208.22,37.626766076809446L208.365,37.73884317522766L208.51,37.86054472545567L208.655,38.016834170560486L209.09,38.22257730747356L209.38,38.36289412684826L209.67,38.458590197661806L209.815,38.52385491795664L210.10500000000002,38.6028540018379L210.25,38.74941726454304L210.685,38.976551163801986L210.82999999999998,39.1314564830966L210.97500000000002,39.23710191085553L211.12,39.37381728329848L211.26500000000001,39.53819020586943L211.41,39.650292539062804L211.555,39.752611077802925L211.845,39.82454827050819L211.99,39.90809798057333L212.13500000000002,40.01681169979804L212.28,40.12975157756267L212.425,40.12055853455345L212.57,40.10350913279879L212.85999999999999,39.85477352688983L213.29500000000002,39.37474226385413L213.44,38.91156271318755L213.73,38.466343878210154L214.31,38.13683656329758L214.455,37.912112574527214L214.745,37.75885081418582L214.89,37.65432629363298L215.32500000000002,37.4601780370466L215.615,37.129458133395815L215.76,36.84355386696356L215.905,36.54941342190517L216.19500000000002,36.3488096383754L216.34,36.21199785800806L216.485,36.118692223797524L216.63,36.05505778126596L216.92,36.01165909145945L217.06500000000003,35.98206118501139L217.21,35.96187541281381L217.35500000000002,35.94810871617506L217.5,35.93871982906742L217.79,35.932316608060034L217.93499999999997,35.92794961133299L218.08,35.924971319565145L218.37,35.87983110475713L218.515,35.81886551023112L218.95,35.710465834768456L219.24,35.705514345383335L219.385,35.79913521568972L219.67499999999998,36.00093882779936L219.82,36.20539003125404L219.96499999999997,36.381470245934764L220.11,36.52095717395159L220.255,36.71739694349512L220.4,36.73927943526536L220.545,36.59685221644315L220.98,36.06645741787548L221.125,35.553841612940545L221.27,35.07275130326764L221.415,34.600225685656596L221.56,34.07749979445822L221.70499999999998,33.6541795966651L221.85,33.27494528355652L222.14000000000001,32.96457466505623L222.285,32.699013136994296L222.43,32.51790017485601L222.575,32.506467243780435L222.72,32.61291204317402L222.86499999999998,32.791128979565485L223.3,32.751009953406L223.73499999999999,32.64389194186248L224.02499999999998,32.57083745798977L224.315,32.52101429998859L224.46,32.48703490623183L224.605,32.42075193986733L224.75,32.37554695680677L224.89499999999998,32.25203127086132L225.475,31.999662748414636L226.05499999999998,31.691749186829753L226.345,31.455884068370864L226.49,31.292868108297426L226.635,31.157982425309598L226.92499999999998,31.119879155756593L227.07000000000002,31.14993411949493L227.215,31.103610464768593L227.65,31.072017732245257L227.795,31.05047148866433L228.08499999999998,31.03577695054213L228.23000000000002,31.025755275542792L228.375,31.018920493193235L228.665,31.01425917163087L228.81,31.011080150325284L228.95499999999998,31.067112722608613L229.245,31.13981548154601L229.39000000000001,31.262684429034863L229.68,31.346481051222298L229.825,31.42303056915867L229.97,31.498949460564802L230.115,31.550726144503784L230.26000000000002,31.62914686277253L230.405,31.667541469596188L230.695,31.835992668579564L230.84,32.07805081842454L231.275,32.40264150411281L232,32.70161323817047L232.58,33.015442120616L233.74,33.31138288147534L233.885,33.444240713056814L234.03,33.43784864617254L234.175,33.34942384424153L234.32000000000002,33.23523268503553L234.755,33.034488458931975L234.9,32.79627121209333L235.19000000000003,32.63380704974938L235.335,32.52300649103077L235.625,32.44744050998469L235.76999999999998,32.39590451091129L235.915,32.36075695954321L236.05999999999997,32.379895349332514L236.35,32.392947731168846L236.495,32.41047325271913L236.64,32.42242565841639L236.785,32.43057719910195L236.92999999999998,32.43613654984949L237.22,32.327841917956675L237.365,32.1397395986628L237.51,31.90583555565516L237.79999999999998,31.74631299832396L238.08999999999997,31.60087412029941L238.235,31.501684805486633L238.95999999999998,31.434037692784358L239.25,31.38790236192139L239.82999999999998,31.35643806627283L239.975,31.334979416640522L240.11999999999998,31.320344617591275L240.7,31.310363684639697L240.98999999999998,31.30355668836674L241.425,31.173892512099002L241.57,31.02726420102644L242.005,30.871218977345762L242.14999999999998,30.764796134795546L242.585,30.73532809795438L242.73,30.717383524157412L243.16500000000002,30.80214643285072L243.31,30.903063756401906L243.455,30.97188937106384L243.6,31.09858195401023L243.745,31.24749885896236L243.89,31.31672759278402L244.035,31.290652601401064L244.32500000000002,31.354778920309343L244.47,31.413601392840434L244.615,31.572272276062762L244.76,31.87663733983905L244.905,32.23725681493076L245.04999999999998,32.70306293853548L245.19500000000002,33.094031702683225L245.34,33.356360501263L245.485,33.40809430975614L246.065,33.2989547407343L246.5,33.48749421607593L246.645,33.68936712610824L246.79,33.82057660289681L246.935,33.819531527853L247.22500000000002,33.82959521113975L247.37,33.8364586431413L247.51500000000001,33.84113950376636L247.66,33.84433185071265L247.805,33.846509031330044L247.95,33.84799386851108L248.095,33.76709706443708L248.24,33.71192544405861L248.38500000000002,33.6742983989605L248.82,33.64863675420358L249.10999999999999,33.631135512479375L249.25500000000002,33.62135561490794L249.835,33.644862370835426L249.98,33.74280344140945L250.125,33.88073229010578L250.41500000000002,34.039464955628034L250.995,34.285674812074944L251.43,34.73811876647528L251.72,35.19541614640366L252.3,35.70560043021794L252.44500000000002,36.12683509962861L252.59,36.41411714416665L252.735,36.6121994478261L253.17,36.964999271229516L253.46,37.44918119060057L253.60500000000002,37.850526298176476L253.75,38.1867529029702L253.89499999999998,38.482880587435346L254.04,38.74304033305427L254.33,38.95926640081976L254.475,39.10673257903585L254.91,39.207304512579185L255.05499999999998,39.275894571255776L255.2,39.32267299127321L255.345,39.35457587372508L255.49,39.37633363955726L255.635,39.39117243585483L256.36,39.41638413992109L256.505,39.47884349120113L256.65,39.61843855484119L257.375,40.18570226678375L257.66499999999996,40.57904064422627L257.81,40.75029963157499L257.955,40.82398924112445L258.1,40.87424555483719L258.39,40.70590099151721L258.53499999999997,40.59108999933298L258.68,40.512788902663345L258.825,40.4830963529524L258.97,40.38093657101808L259.115,40.27677505509871L259.26,40.06347414606776L259.55,39.52569656131561L259.84000000000003,39.02528996852294L259.985,38.673236247771655L260.13,38.56677789021103L260.42,38.880011807294295L260.565,39.255300315523556L260.855,39.63842483222996L261.145,40.02473423547755L261.29,40.301129622243536L261.435,40.489631276017946L261.58,40.60525703014093L261.72499999999997,40.68411379445283L262.16,40.72711768324689L262.305,40.75644633540446L262.45,40.776448476175915L262.59499999999997,40.79008993618203L262.74,40.864058602617604L262.885,41.04383561454944L263.03000000000003,41.24404442310521L263.175,41.46680819214066L263.465,41.954991409930926L263.61,42.4258865430246L263.755,42.86990287931957L263.90000000000003,43.286964079059885L264.48,44.0628599174274L264.77,44.43897837759775L264.915,44.695491167433914L265.06,44.8057676993908L265.35,44.88097629418539L265.64,44.75120535745225L265.78499999999997,44.66270157860029L265.93,44.46223187357805L266.075,44.172469033156574L266.22,43.94467412991793L266.365,43.67076404895303L266.51,43.36540341677886L266.655,43.13774724403149" style="fill: none;" fill="none"></path></g></g></g></g><g opacity="0.2"><g><g><g><path stroke="rgb(255, 112, 67)" stroke-width="2px" d="M29.435000000000002,146.33653846153845L29.724999999999998,148.56153846153848L29.869999999999997,145.82307692307694L30.16,147.19230769230768L30.45,148.43706305577206L30.595,148.84679443652814L30.884999999999998,148.12142894451435L31.03,147.83128144190863L31.175,148.0480769230769L31.32,148.48099539830133L31.465,148.56153846153848L31.61,148.70566746638372L31.755,148.86961590693548L31.9,149.27875445439264L32.480000000000004,149.73907645298885L32.625,149.74645030681904L33.35,150.6153846153846L33.495000000000005,150.6795673076923L33.785000000000004,149.95090467012847L33.93,149.96988969949575L34.22,150.28232851762039L34.655,150.6496148622953L34.8,150.71557213709906L35.089999999999996,150.9656524658203L35.235,150.80209837693434L35.38,150.87401662973258L35.525,150.92792659172645L35.815,151.07179443652814L36.105,151.16307640075684L36.25,151.16576112600472L36.685,151.35071205726035L36.83,151.3871334369366L36.975,151.49560495523306L37.12,151.37206450242263L37.265,151.47705606313852L37.7,151.62547331589917L37.845,151.6202226932232L38.135000000000005,151.59951923076923L38.425000000000004,151.54895081153282L38.57,151.51458084399883L38.715,151.40067850259635L38.86,151.24046856806828L39.005,150.93813142042893L39.295,150.8340813416701L39.440000000000005,150.8029510644766L39.585,150.8466731731708L39.730000000000004,150.91661575023946L40.02,151.01548441373384L40.31,151.1180132352389L40.455000000000005,151.19730795346774L41.18,151.3966514147245L41.324999999999996,151.46717376708983L41.47,151.44951412494365L41.614999999999995,151.51783228654128L41.76,151.57692366379956L41.904999999999994,151.65752157064586L42.629999999999995,151.77562728294959L43.355,151.8819233380831L43.79,152.0523994739239L44.08,152.2625288449801L44.225,152.2760856628418L44.37,152.25575043604925L45.385,151.63214073181152L45.82,151.57113505143386L46.11,151.44912369067853L46.255,151.36100568037767L46.4,151.2457727285532L46.980000000000004,150.689947113624L47.125,150.6153846153846L47.27,150.3374711550199L47.705000000000005,150.09344973930945L47.85,150.03922377366285L48.285000000000004,150.07989292144777L48.865,150.10022814824032L49.155,150.02566695580117L49.445,149.78164554009072L49.59,149.55118094224196L49.73500000000001,149.43594799041747L49.879999999999995,149.49695367079516L50.025,149.47661844400258L50.169999999999995,149.503732079726L50.459999999999994,149.52406730651856L50.75,149.54440253331111L51.184999999999995,149.58507298689622L51.33,149.65963417933537L51.474999999999994,149.6664125882662L51.765,149.78842394902156L51.91,149.768088722229L52.055,149.768088722229L52.345,149.8223146878756L52.489999999999995,149.88332036825327L52.78,150.0188885468703L52.925,150.0053317290086L53.214999999999996,150.1747906464797L53.36,150.2832438835731L53.505,150.37136319967416L53.795,150.35780638181245L54.375,150.45270410684438L54.52,150.47303933363696L54.665,150.51370848142184L54.81,150.52726529928356L55.1,150.5476005260761L55.245,150.54082211714524L55.535000000000004,150.64927666003888L55.825,150.62216302431546L55.97,150.5340437082144L56.115,150.56793575286866L56.260000000000005,150.506930072491L56.550000000000004,150.2968007014348L56.695,150.30357911036566L57.71,148.4734191454374L58.290000000000006,147.3549882008479L58.870000000000005,146.43990821838378L59.01499999999999,146.40601617372954L59.16,146.31111975449784L59.739999999999995,146.62292395371657L59.885,146.69748645195594L60.029999999999994,146.85338855156533L60.175,146.90083741408128L60.61,145.98575743161715L60.754999999999995,145.85696896773118L61.044999999999995,145.80274169628436L61.19,145.24691608135515L61.335,145.20624562777004L61.625,145.01645148350642L61.769999999999996,144.96900262099047L61.915,145.19268880990836L62.205,145.2943636380709L62.35,145.1994672188392L62.495,145.05712063129133L62.64,145.1587967652541L62.785,145.17913199204665L62.93,145.15201835632325L63.365,145.03678540449874L63.51,145.0028946656447L63.8,144.87410489595854L64.38,144.92833216740536L64.525,144.81987762451172L64.815,144.39284047346848L65.105,143.9454680956327L65.25,143.75567395136906L65.97500000000001,142.64402141571045L66.41,141.26801223754882L66.555,141.11211013793945L66.7,140.7325218494122L66.845,140.63762412438027L67.135,139.84455419687123L67.715,138.98370018005372L68.005,138.42787587092474L68.295,138.06184440025916L68.44,137.83815559974084L68.585,137.42467657235952L68.72999999999999,137.20776748657227L69.16499999999999,136.6044930091271L69.31,136.3943636380709L69.6,136.10967307457557L69.89,136.00121853168196L70.17999999999999,135.91310052138107L70.905,135.72330507131724L71.195,135.64874387887807L71.34,135.56062325697678L71.775,134.11683129530687L71.92,133.56100437457746L72.065,133.49322289686938L72.21,133.5406704535851L72.355,134.40152447040265L72.5,134.6794353191669L72.645,135.0047989478478L72.79,135.03191258357123L72.935,135.14714422959548L73.515,134.95734877953163L73.66,134.94379196166992L73.95,134.73366259061373L74.385,134.0693837385911L74.965,134.98446241525502L75.11,135.08613985501802L75.255,135.1268076970027L75.4,135.30304632920485L75.69,135.55384615384617L75.98,136.3536931844858L76.125,136.62482954171986L76.27000000000001,136.82140209491436L76.415,136.87562936636118L76.85000000000001,136.9162998199463L76.995,136.97730419452375L77.28500000000001,137.00441783024715L77.86500000000001,136.75361800560586L78.155,136.299465913039L78.44500000000001,136.170677449153L78.59,136.13678671029896L78.735,135.98766171382024L78.88000000000001,135.93343444237343L79.025,135.51317570026106L79.31500000000001,135.6012937105619L79.46000000000001,135.3911643395057L79.89500000000001,135.26237587561974L80.185,135.3504938859206L80.33000000000001,135.38438723637506L80.62,135.66907779987042L80.91000000000001,136.05544580312875L81.055,135.16070104745717L81.2,134.04904720599836L81.49000000000001,133.59489772503193L81.63499999999999,133.47966607900767L81.77999999999999,133.93381555997408L81.925,133.5406704535851L82.21499999999999,133.85925436753493L82.36,133.70335226792554L82.64999999999999,133.5135568178617L82.79499999999999,133.3169842646672L83.085,132.93739597613995L83.375,133.06618444002592L83.52,132.94417307927057L83.66499999999999,132.89672552255485L83.80999999999999,132.80860751225399L83.955,132.84927535423864L84.24499999999999,132.67981643676757L84.39,132.40868269113395L84.82499999999999,130.50396153376653L84.97,130.2260480734018L85.115,129.70411189152645L85.25999999999999,129.1008374140813L85.55,127.94851573063778L85.695,127.79939073415903L85.83999999999999,127.7180498269888L85.985,127.47402971707858L86.71,128.17220191955568L87.28999999999999,125.84721940847544L87.435,125.6167561164269L87.725,125.21683129530686L88.16,125.15582692072942L89.175,122.986749120859L89.32,122.91896503155047L89.755,120.91934614915114L89.9,120.62109615619366L90.045,120.41096678513748L90.19,120.17372377835787L90.48,119.82124651395358L90.77,119.27219930795522L91.06,118.28933915358323L91.35,116.75742657001203L92.075,113.23267481877254L92.655,112.45993881225586L92.8,111.65331467848557L92.94500000000001,111.4702989431528L93.09,110.44676572359525L93.38,108.88773950430064L93.525,108.81317831186148L93.96000000000001,108.94874126727764L94.39500000000001,108.55559616088867L94.83,108.1285629272461L95.265,106.51530943650467L95.41000000000001,106.08827097966122L95.555,106.27128671499399L95.7,107.05757692777193L95.845,107.46428146362304L96.135,107.58629021277794L96.28,106.52886364276593L96.42500000000001,105.47821678748498L96.57000000000001,105.79680070143479L96.715,104.65803322425255L96.86,104.52924476036658L97.00500000000001,104.52246504563551L97.295,104.06831817626953L97.58500000000001,104.07509266779974L97.73,104.57669231708233L98.165,102.54318530742938L98.31,101.47219930795522L98.89,99.80472376896785L99.325,98.36770629882812L99.47000000000001,98.36770629882812L99.75999999999999,97.41195978017954L99.90499999999999,97.21538461538462L100.195,97.67631119948167L100.485,96.79512587327224L100.91999999999999,96.95102797288162L101.065,96.62566434420071L101.93499999999999,97.27639160156251L102.36999999999999,95.79192657470703L102.515,95.42589510404147L102.66,94.7006118774414L102.94999999999999,93.03991082998422L103.095,92.7213269160344L103.24,91.89436363807091L103.53,92.80266782320463L103.675,92.51797203650841L103.82,92.33495630117564L103.96499999999999,91.83335665189303L104.255,90.74882166935848L104.97999999999999,87.18339685293344L105.125,86.74280418982873L105.995,84.53983042790338L106.285,85.23800524198093L106.42999999999999,84.8041870704064L106.575,83.88232867901142L106.72,82.97402971707858L106.865,82.07928496140701L107.01,81.8420419546274L107.155,80.893069927509L107.3,79.82208915123573L107.445,80.41858391394982L107.59,79.8085297217736L107.735,80.29657516479492L107.88,79.75430245032678L108.17,78.94767831655649L108.315,77.89025174654446L108.46,77.0497342623197L108.605,76.12787064772385L108.895,74.73153146597055L109.04,74.32483215332032L109.185,73.51820279634916L109.475,71.68804544302134L109.765,70.61705944354718L110.055,69.24782867431641L110.2,68.30563636192909L110.635,66.11622725266677L110.78,65.28247903677133L110.925,65.28247903677133L111.215,64.26573075514573L111.36,64.26573075514573L111.505,63.40487412672776L111.795,61.554377629206726L112.08500000000001,60.17836714524488L112.23,59.39207693246695L112.52000000000001,57.71782167874851L112.665,57.71782167874851L112.81,57.71782167874851L112.955,57.71782167874851L113.10000000000001,57.71782167874851L113.245,56.9247517512395L113.39,55.948671311598545L113.53500000000001,55.1420419546274L113.68,54.28118532620944L113.97,53.827038456843454L114.11500000000001,53.827038456843454L114.26,53.827038456843454L114.69500000000001,51.89520627535306L114.84,51.06823777418872L114.985,50.37684267484225L115.275,48.851709806002106L115.42,47.89596851055438L115.56500000000001,46.94021676870494L115.71000000000001,46.21492309570314L116,44.82536362868089L116.29,43.883171316293556L116.435,43.13076923076923L116.58000000000001,42.33091958852913L116.87,41.15825876089241L117.16000000000001,40.48720280573917L117.45,40.48720280573917L117.59500000000001,40.48720280573917L117.74000000000001,39.82970628004807L118.175,38.4401363666241L118.755,36.494744755671576L118.89999999999999,36.06770629882814L119.19,35.728793687086835L119.335,35.728793687086835L119.625,35.511884601299585L120.205,34.5968007014348L120.35,33.83084963285006L120.64,33.119115389310394L120.92999999999999,32.42094057523286L121.50999999999999,32.33960489126352L121.945,31.74310490534856L122.08999999999999,31.11271679217998L122.38,30.258639878493085L122.52499999999999,30.177304194523742L122.67,29.940055964543262L122.815,29.940055964543262L122.96,29.940055964543262L123.10499999999999,29.940055964543262L123.25,29.940055964543262L123.395,29.72992659348708L123.53999999999999,29.7841538649339L124.12,28.997863652155957L124.265,28.997863652155957L124.55499999999999,28.977534954364472L124.845,28.977534954364472L124.99,28.977534954364472L125.135,28.977534954364472L125.28,28.977534954364472L125.57,28.977534954364472L125.715,28.977534954364472L125.86,28.977534954364472L126.005,28.977534954364472L126.295,28.81485314002404L126.44,28.699618882399335L126.585,28.699618882399335L126.73,28.6860594529372L126.875,28.65895104041465L127.165,28.58438462477463L127.31,28.58438462477463L127.455,28.58438462477463L127.745,28.63183218149038L127.89,28.753846153846155L128.035,28.753846153846155L128.18,28.753846153846155L128.325,28.753846153846155L128.47,28.753846153846155L128.615,29.01142308161809L128.76,29.01142308161809L128.905,29.01142308161809L129.34,29.01142308161809L129.63,29.201223754882818L129.92000000000002,29.330006995567913L130.355,29.621482496995185L130.5,29.3706748375526L130.645,29.330006995567913L130.79,29.330006995567913L130.935,29.330006995567913L131.08,29.330006995567913L131.225,29.330006995567913L131.37,29.06565035306491L131.66,29.072430067795977L131.805,29.072430067795977L131.95000000000002,29.072430067795977L132.53,28.835181837815497L133.11,28.713178311861498L133.255,28.713178311861498L133.54500000000002,28.713178311861498L133.69,28.713178311861498L133.835,28.713178311861498L133.98000000000002,28.713178311861498L134.125,28.713178311861498L134.27,28.713178311861498L134.705,28.482709796612085L134.85,28.482709796612085L134.995,28.482709796612085L135.57500000000002,28.482709796612085L135.72,28.482709796612085L136.01,28.482709796612085L136.155,28.482709796612085L136.29999999999998,28.482709796612085L136.445,28.482709796612085L136.73499999999999,28.482709796612085L137.17,28.482709796612085L137.315,28.482709796612085L137.605,28.482709796612085L137.75,28.482709796612085L137.89499999999998,28.482709796612085L138.04,28.482709796612085L138.185,28.428482525165265L138.32999999999998,28.428482525165265L138.62,28.428482525165265L139.055,28.428482525165265L139.2,28.428482525165265L139.49,28.428482525165265L139.78,28.428482525165265L139.92499999999998,28.428482525165265L140.07,28.428482525165265L140.215,28.448821669358466L140.505,28.509828655536353L140.65,28.63183218149038L140.795,28.63183218149038L140.94,29.018202796349158L141.085,29.465569950984076L141.23,29.709597895695595L141.375,30.089188795823304L141.52,30.461999981219947L141.95499999999998,30.461999981219947L142.1,30.461999981219947L142.68,30.29253845214842L142.825,30.29253845214842L143.115,30.29253845214842L143.405,30.40099299504206L143.55,30.40099299504206L143.695,30.909367135854865L143.84,30.909367135854865L143.98499999999999,30.909367135854865L144.13,30.909367135854865L144.275,30.719576908991883L144.42,30.590783221905042L144.71,30.590783221905042L145,30.299318166879516L145.29,30.360314706655657L145.725,30.767024465707635L145.87,31.19406292255107L146.015,31.485527977576623L146.16,31.912566434420057L146.30499999999998,32.39383216271034L146.595,32.98355243389423L146.74,32.99710141695462L146.885,32.99710141695462L147.17499999999998,33.261458059457624L147.32,33.60716083233174L147.61,33.74950350247897L148.045,34.447678316556505L148.33499999999998,34.99672029935397L148.48,35.51866431603065L148.625,36.07448601355918L149.06,37.98598949725812L149.49499999999998,39.20609788161059L149.64000000000001,39.334881122295684L149.93,39.334881122295684L150.075,39.334881122295684L150.22,39.334881122295684L150.51,39.334881122295684L150.655,39.334881122295684L151.23499999999999,39.334881122295684L151.52499999999998,39.334881122295684L151.67000000000002,39.517902080829316L151.815,39.5382307786208L151.96,39.5382307786208L152.25,39.81614685058594L152.39499999999998,39.94493009127103L152.54000000000002,39.94493009127103L152.685,39.94493009127103L152.975,39.94493009127103L153.265,39.94493009127103L153.55499999999998,39.94493009127103L153.70000000000002,39.94493009127103L153.845,39.94493009127103L153.99,39.94493009127103L154.135,39.94493009127103L154.715,40.6566643348107L154.86,40.63632519061747L155.005,40.63632519061747L155.15,40.57532865084136L155.58499999999998,40.826125863882226L155.73000000000002,40.86679370586688L155.875,40.62277620755708L156.02,40.256744736891534L156.165,39.88393355149489L156.45499999999998,40.35841956505408L156.60000000000002,40.70411189152645L156.745,41.17859790508564L156.89000000000001,41.17859790508564L157.18,41.98522726205681L157.47,42.58849651630106L157.615,42.764737760103685L157.76000000000002,43.05620281512921L157.905,42.94097900390625L158.05,43.49680070143481L158.34,43.90350001408504L158.48499999999999,44.27631119948168L158.63000000000002,44.27631119948168L158.92000000000002,44.27631119948168L159.065,44.27631119948168L159.355,44.27631119948168L159.5,44.27631119948168L160.08,44.703349656325116L160.225,45.09649998591496L160.515,46.126807697002704L160.66000000000003,46.750416095440215L160.805,47.12322728083683L160.95000000000002,47.52315732515777L161.095,47.923076923076934L161.24,48.553465036245484L161.385,49.29908740703877L161.675,49.95658393272987L161.82000000000002,49.87524824876053L161.965,49.719346149151136L162.4,49.63800001878005L162.545,49.319416104830225L162.69000000000003,48.97372377835788L162.835,48.83816082294169L163.125,48.11286714993989L163.995,48.7568146925706L164.14,48.61447202242337L164.285,48.95338463416465L164.575,48.95338463416465L165.155,48.95338463416465L165.58999999999997,48.95338463416465L166.025,48.95338463416465L166.45999999999998,48.75003497783956L166.605,48.75003497783956L166.895,48.47212935227614L167.04,48.3433356651893L167.185,48.384003507173986L167.32999999999998,48.384003507173986L167.61999999999998,48.41790208082932L167.76500000000001,48.47212935227614L167.91,48.72292656531701L168.055,48.72292656531701L168.2,48.7568146925706L168.345,48.797482534555286L168.48999999999998,48.797482534555286L168.635,48.797482534555286L168.78,48.797482534555286L169.07,48.797482534555286L169.215,48.47889862060546L169.505,48.085758737417365L169.79500000000002,48.43145106388971L169.94,48.302667823204644L170.23,48.89238809438854L170.51999999999998,49.251639850323016L170.66500000000002,49.610891606257525L170.81,50.27516784667969L170.955,50.566643348106965L171.39,50.42430067795972L171.535,50.42430067795972L171.67999999999998,50.05148949256311L171.82500000000002,49.719346149151136L172.115,49.11606644850511L172.26,48.93983565110426L173.42,49.47532865084136L173.565,49.94303494966948L173.85500000000002,50.03115034836988L174,50.03115034836988L174.29,50.89200697678787L174.435,50.89200697678787L174.57999999999998,50.89200697678787L174.72500000000002,50.403961533766534L175.01500000000001,48.97372377835788L175.16,48.20099299504207L175.305,47.28590909517729L175.595,45.984465026855474L175.74,45.171055955153236L175.88500000000002,44.36443704458384L176.03,43.67982165996847L176.465,43.13076923076923L176.75500000000002,42.94097900390625L177.48,43.88995103102465L177.625,43.76793705866888L177.77,43.67982165996847L177.91500000000002,43.56458740234373L178.205,42.303811176006604L178.495,41.6056363619291L178.64,41.293832162710345L178.78500000000003,41.51752096322866L179.07500000000002,41.15825876089241L179.22,41.15825876089241L179.365,41.15825876089241L179.51,41.15825876089241L179.655,41.53106994628908L180.09,42.29703146127554L180.235,42.602055945763226L180.38,42.602055945763226L181.10500000000002,44.90669931265023L181.25,45.75399651160606L181.39499999999998,46.68940910926233L181.54,47.543486022949224L181.83,49.36009439321663L181.975,50.28872727614184L182.12,51.14280418982872L182.265,52.057877643291775L182.41,52.8916258591872L183.135,55.3725104698768L183.28,55.56908041147085L183.42499999999998,55.56908041147085L183.57,55.56908041147085L183.71499999999997,55.56908041147085L183.86,55.7453112088717L184.44,55.44028672438401L184.58499999999998,55.18948951134314L184.73,55.05392655592698L184.875,54.64043708214393L185.02,54.15918180025541L185.165,53.91515385554388L185.31,53.79315032958985L185.6,54.22017834003155L185.74499999999998,54.77601048396183L185.89000000000001,55.46740558330829L186.035,56.4841538649339L186.18,57.59580770639273L186.325,58.53800001878005L186.47,59.46664334810697L187.05,61.12733917236328L187.34,60.8019755436824L187.48499999999999,60.20548600416916L187.92000000000002,58.64645456167368L188.21,58.632905578613276L188.355,58.632905578613276L188.64499999999998,58.558339162973255L188.935,57.69748253455529L189.08,57.69748253455529L189.225,57.69748253455529L189.515,57.69748253455529L189.95000000000002,57.643255263108486L190.095,57.643255263108486L190.53,57.256895094651455L190.82000000000002,57.1281014075646L191.255,57.45346503624549L191.69,56.782409081092254L191.83499999999998,56.443486022949216L191.98000000000002,56.443486022949216L192.125,56.443486022949216L192.27,56.53838113638071L192.415,56.802737778883724L192.56,56.29436363807092L192.70499999999998,55.982559438852164L192.85000000000002,55.982559438852164L192.995,55.47418529803936L193.285,55.406398597130405L193.43,54.87090559739333L193.575,54.76245105449969L194.01000000000002,54.76245105449969L194.155,54.76245105449969L194.445,54.213409071702216L194.59,53.62368880051834L194.88000000000002,53.31866431603065L195.605,51.87486713115986L195.75,51.16991260235126L195.895,50.322615403395446L196.04000000000002,49.38720280573918L196.185,48.53312589205228L196.475,46.67586012620191L196.62,45.747216796874994L196.765,44.85925175593451L196.91000000000003,43.94417830247144L197.20000000000002,42.18179720365083L197.345,41.50396153376653L197.49,41.03625523493841L197.78,40.60921677809495L197.925,40.6566643348107L198.215,41.402286705603956L199.665,42.64272378774791L200.1,41.68697204589844L200.245,40.663444049541766L200.39,39.768699293870185L200.535,38.738381136380724L200.825,37.0573461679312L200.97,36.33884265606221L201.115,35.64744755671575L201.405,34.427339172363276L201.83999999999997,33.87151747483475L201.985,33.87151747483475L202.13,33.87151747483475L202.275,33.87151747483475L202.42,33.85795804537261L202.565,33.85795804537261L202.70999999999998,33.61394054706278L202.855,33.4038111760066L203.145,33.390251746544465L203.435,33.390251746544465L203.57999999999998,33.48514685997597L203.86999999999998,33.62072026179388L204.16,33.83084963285006L204.45,33.83084963285006L204.595,33.83084963285006L204.73999999999998,33.83084963285006L204.885,33.83084963285006L205.03,33.83084963285006L205.175,33.83084963285006L205.755,33.79017134446363L206.48,35.91858391394982L206.625,36.33206294133112L206.91500000000002,37.3217028104342L207.06,37.267475538987384L207.205,37.55217132568359L207.64,37.830087397648725L207.785,37.78940910926232L207.92999999999998,37.78940910926232L208.07500000000002,37.78940910926232L208.22,37.78940910926232L208.365,37.97920978252705L208.51,38.12155245267428L208.655,38.35202096792369L209.09,38.66382516714242L209.38,38.66382516714242L209.67,38.66382516714242L209.815,38.66382516714242L210.10500000000002,38.77227971003606L210.25,39.063744765061585L210.685,39.463674809382525L210.82999999999998,39.463674809382525L210.97500000000002,39.463674809382525L211.12,39.66702446570764L211.26500000000001,39.89071326622596L211.41,39.89071326622596L211.555,39.97204895019533L211.845,39.97882866492637L211.99,40.08728320782001L212.13500000000002,40.24996502216044L212.28,40.371968548114495L212.425,40.10084263728214L212.57,40.066944063626806L212.85999999999999,39.32132169283355L213.29500000000002,38.3452412531926L213.44,37.91820279634916L213.73,37.51150348369893L214.31,37.43015735332784L214.455,37.43015735332784L214.745,37.43015735332784L214.89,37.43015735332784L215.32500000000002,37.04379718487081L215.615,36.420178340031555L215.76,36.23038811316857L215.905,35.91858391394982L216.19500000000002,35.91858391394982L216.34,35.91858391394982L216.485,35.91858391394982L216.63,35.91858391394982L216.92,35.91858391394982L217.06500000000003,35.91858391394982L217.21,35.91858391394982L217.35500000000002,35.91858391394982L217.5,35.91858391394982L217.79,35.91858391394982L217.93499999999997,35.91858391394982L218.08,35.91858391394982L218.37,35.783020958533655L218.515,35.68811539870043L218.95,35.47798602764425L219.24,35.69489511343147L219.385,35.99991959791916L219.67499999999998,36.43373776949369L219.82,36.64386714054987L219.96499999999997,36.75910139817458L220.11,36.820108384352466L220.255,37.13869229830229L220.4,36.78620981069713L220.545,36.29139509934646L220.98,34.92894404484676L221.125,34.454458031287544L221.27,34.040979003906244L221.415,33.586821688138514L221.56,32.956433574969964L221.70499999999998,32.74630420391378L221.85,32.46161886361929L222.14000000000001,32.29893704927886L222.285,32.129475520207336L222.43,32.129475520207336L222.575,32.48194756141075L222.72,32.84119931734526L222.86499999999998,33.173342660757214L223.3,32.66496851994441L223.73499999999999,32.414160860501795L224.02499999999998,32.414160860501795L224.315,32.414160860501795L224.46,32.414160860501795L224.605,32.27859790508563L224.75,32.27859790508563L224.89499999999998,31.987132850060107L225.475,31.4584195650541L226.05499999999998,31.03138110821064L226.345,30.95003497783955L226.49,30.943255263108483L226.635,30.86869929387018L226.92499999999998,31.038160822941705L227.07000000000002,31.214391620342553L227.215,31.00426224928637L227.65,31.00426224928637L227.795,31.00426224928637L228.08499999999998,31.00426224928637L228.23000000000002,31.00426224928637L228.375,31.00426224928637L228.665,31.00426224928637L228.81,31.00426224928637L228.95499999999998,31.18728320782003L229.245,31.29573775071364L229.39000000000001,31.52619581956131L229.68,31.52619581956131L229.825,31.587202805739196L229.97,31.66176922137919L230.115,31.66176922137919L230.26000000000002,31.79733217679538L230.405,31.749884620079627L230.695,32.19726222111629L230.84,32.597181819035455L231.275,33.09877624511719L232,33.34280418982871L232.58,33.688496516301086L233.74,33.94607344407302L233.885,33.72917480468752L234.03,33.42413987379808L234.175,33.15978323129508L234.32000000000002,32.9903321486253L234.755,32.60396153376652L234.9,32.2853776198167L235.19000000000003,32.2853776198167L235.335,32.2853776198167L235.625,32.2853776198167L235.76999999999998,32.2853776198167L235.915,32.2853776198167L236.05999999999997,32.42094057523286L236.35,32.42094057523286L236.495,32.44805943415716L236.64,32.44805943415716L236.785,32.44805943415716L236.92999999999998,32.44805943415716L237.22,32.09558739295372L237.365,31.736325190617492L237.51,31.404192293607252L237.79999999999998,31.404192293607252L238.08999999999997,31.288958035982574L238.235,31.288958035982574L238.95999999999998,31.288958035982574L239.25,31.288958035982574L239.82999999999998,31.288958035982574L239.975,31.288958035982574L240.11999999999998,31.288958035982574L240.7,31.288958035982574L240.98999999999998,31.288958035982574L241.425,30.89580770639273L241.57,30.712797194260816L242.005,30.536555950458222L242.14999999999998,30.536555950458222L242.585,30.67212935227613L242.73,30.67889862060545L243.16500000000002,30.983933551494886L243.31,31.119496506911048L243.455,31.119496506911048L243.6,31.370293719951917L243.745,31.56687410794771L243.89,31.46519927978514L244.035,31.234730764535755L244.32500000000002,31.49230769230769L244.47,31.539755249023443L244.615,31.912566434420057L244.76,32.5293951181265L244.905,33.010660846416755L245.04999999999998,33.70205594576322L245.19500000000002,33.93252446101263L245.34,33.9189650315505L245.485,33.519045433631305L246.065,33.064888117863575L246.5,33.8918461726262L246.645,34.12231468787559L246.79,34.101975543682386L246.935,33.81729020338793L247.22500000000002,33.85117833064152L247.37,33.85117833064152L247.51500000000001,33.85117833064152L247.66,33.85117833064152L247.805,33.85117833064152L247.95,33.85117833064152L248.095,33.59360140286958L248.24,33.59360140286958L248.38500000000002,33.59360140286958L248.82,33.59360140286958L249.10999999999999,33.59360140286958L249.25500000000002,33.60038111760065L249.835,33.69527623103215L249.98,33.95285315880409L250.125,34.176541959322435L250.41500000000002,34.37989161564752L250.995,34.81370978722205L251.43,35.708454542893634L251.72,36.17616084172175L252.3,36.799769240159264L252.44500000000002,37.03023775540865L252.59,37.03023775540865L252.735,37.037017470139716L253.17,37.721632854755114L253.46,38.48758392333983L253.60500000000002,38.71127272385817L253.75,38.90784266545222L253.89499999999998,39.117972036508405L254.04,39.300992995042066L254.33,39.422996520996094L254.475,39.422996520996094L254.91,39.422996520996094L255.05499999999998,39.422996520996094L255.2,39.422996520996094L255.345,39.422996520996094L255.49,39.422996520996094L255.635,39.422996520996094L256.36,39.47045452411356L256.505,39.61279719426082L256.65,39.91782167874848L257.375,41.402286705603956L257.66499999999996,41.42261540339544L257.81,41.11759091890775L257.955,40.98202796349159L258.1,40.98202796349159L258.39,40.344860135591944L258.53499999999997,40.344860135591944L258.68,40.344860135591944L258.825,40.41941610483025L258.97,40.16183917705831L259.115,40.05338463416467L259.26,39.606017479529754L259.55,38.37234966571515L259.84000000000003,37.95209092360275L259.985,37.91820279634916L260.13,38.33846153846153L260.42,39.551790208082934L260.565,40.06016434889574L260.855,40.46009439321665L261.145,40.85323427640475L261.29,40.893902118389434L261.435,40.893902118389434L261.58,40.85323427640475L261.72499999999997,40.85323427640475L262.16,40.81934614915113L262.305,40.81934614915113L262.45,40.81934614915113L262.59499999999997,40.81934614915113L262.74,41.022695805476275L262.885,41.42939511812651L263.03000000000003,41.673423062838026L263.175,41.944559420072096L263.465,43.00197554368239L263.61,43.43579371525692L263.755,43.82216433011567L263.90000000000003,44.18141608605018L264.48,45.72688809908354L264.77,45.24562237079326L264.915,45.24562237079326L265.06,45.04227271446814L265.35,45.04227271446814L265.64,44.47289158747748L265.78499999999997,44.47289158747748L265.93,44.03229370117188L266.075,43.5510279728816L266.22,43.45613285945012L266.365,43.08332167405348L266.51,42.71051048865684L266.655,42.64950350247895" style="fill: none;" fill="none"></path></g></g></g></g></g></g><g transform="translate(40, 178)" clip-path="url(#clip_1)"><clipPath id="clip_1"><rect width="290" height="22"></rect></clipPath><g><g><line x1="0" y1="0" x2="0" y2="5" style="visibility: inherit;" fill="rgb(0, 0, 0)" stroke="rgb(204, 204, 204)" stroke-width="1px"></line><line x1="29" y1="0" x2="29" y2="5" style="visibility: inherit;" fill="rgb(0, 0, 0)" stroke="rgb(204, 204, 204)" stroke-width="1px"></line><line x1="58" y1="0" x2="58" y2="5" style="visibility: inherit;" fill="rgb(0, 0, 0)" stroke="rgb(204, 204, 204)" stroke-width="1px"></line><line x1="87" y1="0" x2="87" y2="5" style="visibility: inherit;" fill="rgb(0, 0, 0)" stroke="rgb(204, 204, 204)" stroke-width="1px"></line><line x1="116" y1="0" x2="116" y2="5" style="visibility: inherit;" fill="rgb(0, 0, 0)" stroke="rgb(204, 204, 204)" stroke-width="1px"></line><line x1="145" y1="0" x2="145" y2="5" style="visibility: inherit;" fill="rgb(0, 0, 0)" stroke="rgb(204, 204, 204)" stroke-width="1px"></line><line x1="174" y1="0" x2="174" y2="5" style="visibility: inherit;" fill="rgb(0, 0, 0)" stroke="rgb(204, 204, 204)" stroke-width="1px"></line><line x1="203" y1="0" x2="203" y2="5" style="visibility: inherit;" fill="rgb(0, 0, 0)" stroke="rgb(204, 204, 204)" stroke-width="1px"></line><line x1="232" y1="0" x2="232" y2="5" style="visibility: inherit;" fill="rgb(0, 0, 0)" stroke="rgb(204, 204, 204)" stroke-width="1px"></line><line x1="261" y1="0" x2="261" y2="5" style="visibility: inherit;" fill="rgb(0, 0, 0)" stroke="rgb(204, 204, 204)" stroke-width="1px"></line><line x1="290" y1="0" x2="290" y2="5" style="visibility: inherit;" fill="rgb(0, 0, 0)" stroke="rgb(204, 204, 204)" stroke-width="1px"></line></g><g transform="translate(0, 8)"><text x="0" y="0" dx="0em" dy="0.95em" style="text-anchor: middle; visibility: hidden; font-family: &quot;Helvetica Neue&quot;, sans-serif; font-size: 12px; font-weight: 200;" fill="rgb(50, 49, 63)" stroke="none" stroke-width="1px">-200</text><text x="29" y="0" dx="0em" dy="0.95em" style="text-anchor: middle; visibility: inherit; font-family: &quot;Helvetica Neue&quot;, sans-serif; font-size: 12px; font-weight: 200;" fill="rgb(50, 49, 63)" stroke="none" stroke-width="1px">0</text><text x="58" y="0" dx="0em" dy="0.95em" style="text-anchor: middle; visibility: inherit; font-family: &quot;Helvetica Neue&quot;, sans-serif; font-size: 12px; font-weight: 200;" fill="rgb(50, 49, 63)" stroke="none" stroke-width="1px">200</text><text x="87" y="0" dx="0em" dy="0.95em" style="text-anchor: middle; visibility: inherit; font-family: &quot;Helvetica Neue&quot;, sans-serif; font-size: 12px; font-weight: 200;" fill="rgb(50, 49, 63)" stroke="none" stroke-width="1px">400</text><text x="116" y="0" dx="0em" dy="0.95em" style="text-anchor: middle; visibility: inherit; font-family: &quot;Helvetica Neue&quot;, sans-serif; font-size: 12px; font-weight: 200;" fill="rgb(50, 49, 63)" stroke="none" stroke-width="1px">600</text><text x="145" y="0" dx="0em" dy="0.95em" style="text-anchor: middle; visibility: inherit; font-family: &quot;Helvetica Neue&quot;, sans-serif; font-size: 12px; font-weight: 200;" fill="rgb(50, 49, 63)" stroke="none" stroke-width="1px">800</text><text x="174" y="0" dx="0em" dy="0.95em" style="text-anchor: middle; visibility: inherit; font-family: &quot;Helvetica Neue&quot;, sans-serif; font-size: 12px; font-weight: 200;" fill="rgb(50, 49, 63)" stroke="none" stroke-width="1px">1k</text><text x="203" y="0" dx="0em" dy="0.95em" style="text-anchor: middle; visibility: inherit; font-family: &quot;Helvetica Neue&quot;, sans-serif; font-size: 12px; font-weight: 200;" fill="rgb(50, 49, 63)" stroke="none" stroke-width="1px">1.2k</text><text x="232" y="0" dx="0em" dy="0.95em" style="text-anchor: middle; visibility: inherit; font-family: &quot;Helvetica Neue&quot;, sans-serif; font-size: 12px; font-weight: 200;" fill="rgb(50, 49, 63)" stroke="none" stroke-width="1px">1.4k</text><text x="261" y="0" dx="0em" dy="0.95em" style="text-anchor: middle; visibility: inherit; font-family: &quot;Helvetica Neue&quot;, sans-serif; font-size: 12px; font-weight: 200;" fill="rgb(50, 49, 63)" stroke="none" stroke-width="1px">1.6k</text><text x="290" y="0" dx="0em" dy="0.95em" style="text-anchor: middle; visibility: hidden; font-family: &quot;Helvetica Neue&quot;, sans-serif; font-size: 12px; font-weight: 200;" fill="rgb(50, 49, 63)" stroke="none" stroke-width="1px">1.8k</text></g><line x1="0" y1="0" x2="290" y2="0" fill="rgb(0, 0, 0)" stroke="rgb(204, 204, 204)" stroke-width="1px"></line></g></g></g></g></svg>